<svg xmlns="http://www.w3.org/2000/svg" width="98" height="93" fill="none" viewBox="0 0 98 93">
  <g clip-path="url(#a)">
    <path fill="#fff" stroke="#000" stroke-width="2" d="M46.5 92C71.629 92 92 71.629 92 46.5S71.629 1 46.5 1 1 21.371 1 46.5 21.371 92 46.5 92Z"/>
    <path fill="#000" d="M61 48c1.657 0 3-3.582 3-8s-1.343-8-3-8-3 3.582-3 8 1.343 8 3 8Z"/>
    <path fill="#000" d="M61 48c1.657 0 3-3.582 3-8s-1.343-8-3-8-3 3.582-3 8 1.343 8 3 8Z"/>
    <path fill="#000" d="M61 48c1.657 0 3-3.582 3-8s-1.343-8-3-8-3 3.582-3 8 1.343 8 3 8Zm17 0c1.657 0 3-3.582 3-8s-1.343-8-3-8-3 3.582-3 8 1.343 8 3 8Z"/>
    <path fill="#000" d="M78 48c1.657 0 3-3.582 3-8s-1.343-8-3-8-3 3.582-3 8 1.343 8 3 8Z"/>
    <path fill="#000" d="M78 48c1.657 0 3-3.582 3-8s-1.343-8-3-8-3 3.582-3 8 1.343 8 3 8Z"/>
    <path stroke="#000" stroke-linecap="round" stroke-width="3" d="M46 67c16 9 35.5 7.5 50-4.5"/>
  </g>
  <defs>
    <clipPath id="a">
      <path fill="#fff" d="M0 0h98v93H0z"/>
    </clipPath>
  </defs>
</svg>
